<svg xmlns="http://www.w3.org/2000/svg" overflow="visible" viewBox="121.6 83 1046.8 196"><path d="m121.6 181 98-98 98 98-98 98-98-98z"/><path fill="#fff" d="M228.2 204.9c-3.3 14-20 17.9-31.7 11.9-9.7-4.8-11.5-18.1-8.4-27.5 5-13.5 21.5-14.7 33.7-14.2 1.8-.1 3.3.3 5.1-.4-.3-3.2-.2-6.7-1.1-9.8-1.3-4.4-5.3-5.6-9.4-5.9-6.8-.6-11.9 3.2-15.7 8.5-3.8-3.7-7.5-7.2-11.3-10.8 9.4-17.6 43.4-19.7 53.4-2.1 2.5 4.4 3.2 9.2 3.2 14.1.1 11 0 21.9 0 32.9 2 .5 6.6-1.4 6.5 1.6V216c0 1.2-.4 1.6-1.6 1.6-3.8-.1-7.7 0-11.5-.3-6.2-.4-9.8-6.6-10.6-12.3-.2 0-.4-.1-.6-.1zM227 187c-7 .7-17.2-2.8-20.2 4.7-1.2 3.7-1.3 7.6 1.1 11 5 4.2 14.6 2.7 17.8-2.7.9-4.2.9-8.6 1.3-13z"/><g fill-rule="evenodd" clip-rule="evenodd"><path fill="#16bdca" d="M445.3 131c-22.2 0-36.1 11.1-41.7 33.3 8.3-11.1 18.1-15.3 29.2-12.5 6.3 1.6 10.9 6.2 15.9 11.3 8.2 8.3 17.6 17.9 38.3 17.9 22.2 0 36.1-11.1 41.7-33.3-8.3 11.1-18.1 15.3-29.2 12.5-6.3-1.6-10.9-6.2-15.9-11.3-8.2-8.3-17.7-17.9-38.3-17.9zm-41.7 50c-22.2 0-36.1 11.1-41.7 33.3 8.3-11.1 18.1-15.3 29.2-12.5 6.3 1.6 10.9 6.2 15.9 11.3 8.2 8.3 17.6 17.9 38.3 17.9 22.2 0 36.1-11.1 41.7-33.3-8.3 11.1-18.1 15.3-29.2 12.5-6.3-1.6-10.9-6.2-15.9-11.3-8.2-8.3-17.7-17.9-38.3-17.9z"/><path fill="#0f172a" d="M611.9 173.1h-14.5v28.1c0 7.5 4.9 7.4 14.5 6.9v11.4c-19.5 2.3-27.2-3-27.2-18.3v-28.1h-10.8v-12.2h10.8v-15.7l12.7-3.8v19.5h14.5v12.2zm55.4-12.2H680v58.6h-12.7v-8.4c-4.5 6.2-11.4 10-20.5 10-16 0-29.2-13.5-29.2-30.8 0-17.5 13.3-30.8 29.2-30.8 9.1 0 16.1 3.8 20.5 9.9v-8.5zM648.8 209c10.6 0 18.5-7.9 18.5-18.8s-8-18.8-18.5-18.8-18.5 7.9-18.5 18.8 8 18.8 18.5 18.8zm52.3-56.9c-4.5 0-8.1-3.8-8.1-8.1 0-4.5 3.6-8.1 8.1-8.1s8.1 3.6 8.1 8.1c-.1 4.4-3.6 8.1-8.1 8.1zm-6.3 67.5v-58.7h12.7v58.6h-12.7v.1zm27.2 0V134h12.7v85.6H722zm94.9-58.7h13.4l-18.4 58.6h-12.4L787.3 180 775 219.5h-12.5l-18.4-58.6h13.4l11.4 40.5 12.3-40.5h12.1l12.2 40.5 11.4-40.5zm29.1-8.8c-4.5 0-8.1-3.8-8.1-8.1 0-4.5 3.6-8.1 8.1-8.1s8.1 3.6 8.1 8.1c0 4.4-3.7 8.1-8.1 8.1zm-6.3 67.5v-58.7h12.7v58.6h-12.7v.1zm58.1-60.2c13.1 0 22.5 8.9 22.5 24.2v36h-12.7v-34.7c0-8.9-5.2-13.6-13.1-13.6-8.3 0-14.9 4.9-14.9 16.9v31.4h-12.7v-58.7h12.7v7.5c3.9-6.1 10.3-9 18.2-9zm82.6-21.9h12.7v82.1h-12.7v-8.4c-4.5 6.2-11.4 10-20.5 10-16 0-29.2-13.5-29.2-30.8 0-17.5 13.3-30.8 29.2-30.8 9.1 0 16.1 3.8 20.5 9.9v-32zM961.9 209c10.6 0 18.5-7.9 18.5-18.8s-8-18.8-18.5-18.8-18.5 7.9-18.5 18.8 7.9 18.8 18.5 18.8zm73.6 12.1c-17.7 0-31-13.5-31-30.8 0-17.5 13.3-30.8 31-30.8 11.5 0 21.5 6 26.2 15.1l-10.9 6.3c-2.6-5.5-8.3-9-15.4-9-10.3 0-18.2 7.9-18.2 18.4s7.9 18.4 18.2 18.4c7 0 12.8-3.6 15.6-9l10.9 6.2c-4.9 9.2-14.9 15.2-26.4 15.2zm47.3-44c0 10.7 31.5 4.2 31.5 25.9 0 11.7-10.2 18.1-22.9 18.1-11.7 0-20.2-5.3-23.9-13.7l10.9-6.3c1.9 5.3 6.6 8.4 13 8.4 5.6 0 10-1.9 10-6.6 0-10.4-31.5-4.6-31.5-25.6 0-11 9.5-17.9 21.5-17.9 9.6 0 17.6 4.5 21.7 12.2l-10.7 6c-2.1-4.6-6.2-6.7-11-6.7-4.6 0-8.6 2-8.6 6.2zm54.1 0c0 10.7 31.5 4.2 31.5 25.9 0 11.7-10.2 18.1-22.9 18.1-11.7 0-20.2-5.3-23.9-13.7l10.9-6.3c1.9 5.3 6.6 8.4 13 8.4 5.6 0 10-1.9 10-6.6 0-10.4-31.5-4.6-31.5-25.6 0-11 9.5-17.9 21.5-17.9 9.6 0 17.6 4.5 21.7 12.2l-10.7 6c-2.1-4.6-6.2-6.7-11-6.7-4.7 0-8.6 2-8.6 6.2z"/></g></svg>